<svg width="30" height="30" viewBox="0 0 30 30" fill="none" xmlns="http://www.w3.org/2000/svg">
<g clip-path="url(#clip0_143_187)">
<path d="M5.625 21.8754H2.5C1.83696 21.8754 1.20107 22.1388 0.732233 22.6076C0.263392 23.0765 0 23.7124 0 24.3754L0 27.5004C0 28.1634 0.263392 28.7993 0.732233 29.2681C1.20107 29.737 1.83696 30.0004 2.5 30.0004H5.625C6.28804 30.0004 6.92393 29.737 7.39277 29.2681C7.86161 28.7993 8.125 28.1634 8.125 27.5004V24.3754C8.125 23.7124 7.86161 23.0765 7.39277 22.6076C6.92393 22.1388 6.28804 21.8754 5.625 21.8754ZM5.625 27.5004H2.5V24.3754H5.625V27.5004Z" fill="white"/>
<path d="M27.5 21.8754H24.375C23.712 21.8754 23.0761 22.1388 22.6072 22.6076C22.1384 23.0765 21.875 23.7124 21.875 24.3754V27.5004C21.875 28.1634 22.1384 28.7993 22.6072 29.2681C23.0761 29.737 23.712 30.0004 24.375 30.0004H27.5C28.163 30.0004 28.7989 29.737 29.2677 29.2681C29.7366 28.7993 30 28.1634 30 27.5004V24.3754C30 23.7124 29.7366 23.0765 29.2677 22.6076C28.7989 22.1388 28.163 21.8754 27.5 21.8754ZM27.5 27.5004H24.375V24.3754H27.5V27.5004Z" fill="white"/>
<path d="M5.625 10.9371H2.5C1.83696 10.9371 1.20107 11.2005 0.732233 11.6694C0.263392 12.1382 0 12.7741 0 13.4371L0 16.5621C0 17.2252 0.263392 17.861 0.732233 18.3299C1.20107 18.7987 1.83696 19.0621 2.5 19.0621H5.625C6.28804 19.0621 6.92393 18.7987 7.39277 18.3299C7.86161 17.861 8.125 17.2252 8.125 16.5621V13.4371C8.125 12.7741 7.86161 12.1382 7.39277 11.6694C6.92393 11.2005 6.28804 10.9371 5.625 10.9371ZM5.625 16.5621H2.5V13.4371H5.625V16.5621Z" fill="white"/>
<path d="M27.5 10.9371H24.375C23.712 10.9371 23.0761 11.2005 22.6072 11.6694C22.1384 12.1382 21.875 12.7741 21.875 13.4371V16.5621C21.875 17.2252 22.1384 17.861 22.6072 18.3299C23.0761 18.7987 23.712 19.0621 24.375 19.0621H27.5C28.163 19.0621 28.7989 18.7987 29.2677 18.3299C29.7366 17.861 30 17.2252 30 16.5621V13.4371C30 12.7741 29.7366 12.1382 29.2677 11.6694C28.7989 11.2005 28.163 10.9371 27.5 10.9371ZM27.5 16.5621H24.375V13.4371H27.5V16.5621Z" fill="white"/>
<path d="M5.625 0H2.5C1.83696 0 1.20107 0.263392 0.732233 0.732233C0.263392 1.20107 0 1.83696 0 2.5L0 5.625C0 6.28804 0.263392 6.92393 0.732233 7.39277C1.20107 7.86161 1.83696 8.125 2.5 8.125H5.625C6.28804 8.125 6.92393 7.86161 7.39277 7.39277C7.86161 6.92393 8.125 6.28804 8.125 5.625V2.5C8.125 1.83696 7.86161 1.20107 7.39277 0.732233C6.92393 0.263392 6.28804 0 5.625 0V0ZM5.625 5.625H2.5V2.5H5.625V5.625Z" fill="white"/>
<path d="M16.5625 21.8754H13.4375C12.7745 21.8754 12.1386 22.1388 11.6697 22.6076C11.2009 23.0765 10.9375 23.7124 10.9375 24.3754V27.5004C10.9375 28.1634 11.2009 28.7993 11.6697 29.2681C12.1386 29.737 12.7745 30.0004 13.4375 30.0004H16.5625C17.2255 30.0004 17.8614 29.737 18.3303 29.2681C18.7991 28.7993 19.0625 28.1634 19.0625 27.5004V24.3754C19.0625 23.7124 18.7991 23.0765 18.3303 22.6076C17.8614 22.1388 17.2255 21.8754 16.5625 21.8754ZM16.5625 27.5004H13.4375V24.3754H16.5625V27.5004Z" fill="white"/>
<path d="M16.5625 10.9371H13.4375C12.7745 10.9371 12.1386 11.2005 11.6697 11.6694C11.2009 12.1382 10.9375 12.7741 10.9375 13.4371V16.5621C10.9375 17.2252 11.2009 17.861 11.6697 18.3299C12.1386 18.7987 12.7745 19.0621 13.4375 19.0621H16.5625C17.2255 19.0621 17.8614 18.7987 18.3303 18.3299C18.7991 17.861 19.0625 17.2252 19.0625 16.5621V13.4371C19.0625 12.7741 18.7991 12.1382 18.3303 11.6694C17.8614 11.2005 17.2255 10.9371 16.5625 10.9371ZM16.5625 16.5621H13.4375V13.4371H16.5625V16.5621Z" fill="white"/>
<path d="M16.5625 0H13.4375C12.7745 0 12.1386 0.263392 11.6697 0.732233C11.2009 1.20107 10.9375 1.83696 10.9375 2.5V5.625C10.9375 6.28804 11.2009 6.92393 11.6697 7.39277C12.1386 7.86161 12.7745 8.125 13.4375 8.125H16.5625C17.2255 8.125 17.8614 7.86161 18.3303 7.39277C18.7991 6.92393 19.0625 6.28804 19.0625 5.625V2.5C19.0625 1.83696 18.7991 1.20107 18.3303 0.732233C17.8614 0.263392 17.2255 0 16.5625 0V0ZM16.5625 5.625H13.4375V2.5H16.5625V5.625Z" fill="white"/>
<path d="M27.5 0H24.375C23.712 0 23.0761 0.263392 22.6072 0.732233C22.1384 1.20107 21.875 1.83696 21.875 2.5V5.625C21.875 6.28804 22.1384 6.92393 22.6072 7.39277C23.0761 7.86161 23.712 8.125 24.375 8.125H27.5C28.163 8.125 28.7989 7.86161 29.2677 7.39277C29.7366 6.92393 30 6.28804 30 5.625V2.5C30 1.83696 29.7366 1.20107 29.2677 0.732233C28.7989 0.263392 28.163 0 27.5 0V0ZM27.5 5.625H24.375V2.5H27.5V5.625Z" fill="white"/>
</g>
<defs>
<clipPath id="clip0_143_187">
<rect width="30" height="30" fill="white"/>
</clipPath>
</defs>
</svg>
