<svg width="263" height="56" viewBox="0 0 263 56" fill="none" xmlns="http://www.w3.org/2000/svg">
<g clip-path="url(#clip0_70_894)">
<path d="M23.3728 0V12.4796L33.508 0H23.3728ZM1.5494 5.93748C2.25638 4.79887 3.01579 3.90056 4.0673 3.05645L4.86566 2.51325C5.62031 2.10198 6.30329 1.8284 7.14719 1.61807C7.65823 1.52649 8.12933 1.47642 8.65582 1.45913C9.35968 1.48268 9.96228 1.57113 10.6462 1.74028C11.126 1.89379 11.5603 2.06607 12.0158 2.28249C13.0506 2.85452 13.8374 3.49819 14.6295 4.36948L15.2247 5.12252C16.0977 6.40311 16.6624 7.672 17.0791 9.15402L17.3042 10.1617C17.3338 10.3224 17.3587 10.4822 17.3785 10.6359V0H0V10.6645C0.21566 9.48838 0.561178 7.94376 1.09079 6.79939L1.5494 5.93748ZM40.7527 1.72496L23.3728 23.1272V27.983C23.3932 27.8264 23.4197 27.6688 23.4463 27.5098L23.6707 26.504C24.0887 25.021 24.6541 23.7509 25.5258 22.4697L26.121 21.7135C26.799 20.9751 27.4584 20.4033 28.3101 19.8672C28.7484 19.6219 29.1743 19.4218 29.6329 19.2353C30.6566 18.9127 31.5317 18.7878 32.612 18.8201L33.6122 18.9662C34.4491 19.176 35.1325 19.4496 35.8836 19.8667C36.3006 20.1243 36.6767 20.3975 37.0583 20.7029C38.1884 21.7193 38.9753 22.8004 39.6642 24.147L40.0577 25.0546C40.3754 25.9112 40.6029 27.1707 40.7532 28.0184L40.7527 1.72496Z" fill="#50B848"/>
<path d="M32.0971 37.1473C29.6451 37.1473 27.6473 34.0108 27.6473 30.1607C27.6473 26.3126 29.6451 23.1761 32.0971 23.1761C34.5523 23.1761 36.5523 26.3126 36.5523 30.1607C36.5523 34.0108 34.5523 37.1473 32.0971 37.1473ZM32.0971 21.354C28.6237 21.354 25.793 25.3086 25.793 30.1607C25.793 35.0126 28.6242 38.9703 32.0971 38.9703C35.5688 38.9703 38.404 35.0126 38.404 30.1607C38.4066 25.3109 35.5688 21.354 32.0971 21.354Z" fill="#50B848"/>
<path d="M23.6707 33.8233L23.4463 32.813C23.4197 32.6532 23.3932 32.4964 23.3728 32.3424V42.9805H40.7527V32.3952C40.5336 33.5744 40.1903 35.0331 39.6637 36.1803L39.1993 37.0435C38.4924 38.1781 37.7352 39.0728 36.685 39.9211L35.8831 40.4611C35.1315 40.8777 34.4486 41.1481 33.6117 41.3584C33.0931 41.45 32.6209 41.5009 32.0968 41.5182C31.3953 41.4948 30.7891 41.4093 30.1056 41.2371C29.6263 41.0826 29.191 40.91 28.736 40.697C27.7013 40.1215 26.9134 39.4796 26.1205 38.6097L25.5253 37.8514C24.6541 36.5751 24.0916 35.3027 23.6707 33.8233ZM17.3794 14.9956C17.36 15.1522 17.3348 15.309 17.3052 15.4696L17.0799 16.4763C16.6632 17.9595 16.0986 19.2304 15.2256 20.508L14.63 21.2647C13.9558 22.0022 13.2905 22.5737 12.4378 23.1133C12.004 23.3533 11.5797 23.5547 11.1159 23.742C10.0887 24.0678 9.22226 24.1926 8.14297 24.1533L7.1467 24.0146C6.30329 23.8039 5.61982 23.5308 4.86517 23.1133C4.45029 22.8526 4.07518 22.5795 3.69351 22.2748C2.5603 21.2553 1.77656 20.1814 1.08997 18.8306C0.541285 17.5672 0.244754 16.3758 0 15.0124V41.2524L17.3794 19.8564V14.9956Z" fill="#50B848"/>
<path d="M8.65622 19.8001C6.20342 19.8001 4.20018 16.6649 4.20018 12.8176C4.20018 8.96955 6.20342 5.82729 8.65622 5.82729C11.1057 5.82729 13.1017 8.97005 13.1017 12.8176C13.1017 16.6649 11.1057 19.8001 8.65622 19.8001ZM8.65622 4.01059C5.18281 4.01059 2.34899 7.96419 2.34899 12.8171C2.34899 17.6664 5.18281 21.6206 8.65622 21.6206C12.1258 21.6206 14.9569 17.666 14.9569 12.8171C14.9569 7.96468 12.1258 4.01059 8.65622 4.01059ZM17.3798 30.505L7.24424 42.9815H17.3798V30.505ZM40.2501 0H35.3659L0.523438 42.9815H5.33568L40.2501 0ZM21.8758 40.0229H18.8944V42.9815H21.8758V40.0229Z" fill="#50B848"/>
<path d="M42.2563 40.023V42.9816C44.2935 42.9816 45.9489 44.6178 45.9489 46.6356C45.9489 48.6548 44.2935 50.291 42.2563 50.291C40.7563 50.291 39.3859 49.9541 36.5385 49.2533C31.0211 47.8991 24.2283 46.2275 18.7879 44.8906C9.01067 42.4893 0.0410598 45.2132 0.00341797 51.578H2.98386C2.98386 49.2116 7.55792 47.6415 17.3533 50.0457C25.8255 52.1286 29.0117 52.9118 35.3924 54.4798C39.6051 55.5144 43.0582 55.2651 45.5398 54.08L45.5492 54.0894C48.0307 52.8821 49.737 50.3539 49.737 47.4351C49.7375 43.3397 46.3858 40.023 42.2563 40.023ZM153.708 32.3143H144.969V36.4084H153.708V32.3143ZM191.566 29.5963H183.31V21.5099H178.677V42.9816H183.31V33.6735H191.566V42.9816H196.197V21.5099H191.566V29.5963ZM160.708 35.0247V21.5096H156.078V42.9813H159.635L170.404 29.4041V42.9813H175.035V21.5096H171.429L160.708 35.0247ZM242.241 21.0394C239.222 21.038 236.539 21.843 234.386 23.8753C232.55 25.581 230.949 28.389 230.949 32.2623C230.944 35.389 231.919 38.0938 234.384 40.4579C236.168 42.1575 238.487 43.4571 242.21 43.4519C244.51 43.4519 246.221 42.8733 247.503 42.1976L247.653 42.1176V36.4125L247.158 36.9995C245.986 38.3826 244.347 39.1868 242.493 39.1886C240.806 39.1886 239.105 38.5835 237.833 37.4286C236.56 36.2714 235.706 34.5709 235.704 32.325C235.704 30.464 236.362 28.7048 237.519 27.4169C238.673 26.1291 240.318 25.3061 242.335 25.3044C243.052 25.3057 245.328 25.4513 247.159 27.5586L247.654 28.1283V22.44L247.508 22.36C245.552 21.2984 243.742 21.0394 242.241 21.0394ZM138.084 30.564C137.298 31.1554 136.382 31.1648 135.598 31.1638H134.221V25.5854H135.347C136.305 25.5841 137.303 25.6559 138.057 26.1897C138.593 26.5881 139.098 27.2806 139.098 28.3431C139.101 29.1757 138.754 30.0323 138.084 30.564ZM141.633 23.1786C140.837 22.4777 139.999 22.0531 139.07 21.8136C138.14 21.572 137.124 21.5099 135.94 21.5099H129.59V42.9816H134.221V35.2398H136.567C139.026 35.2411 140.834 34.5301 142.052 33.3075C143.735 31.6115 143.853 29.2793 143.855 28.4378C143.855 26.8826 143.403 24.7568 141.634 23.1799L141.633 23.1786ZM248.986 21.5099V25.5859H253.678V42.9821H258.311V25.5859H263V21.5099H248.986ZM79.2903 42.9816H91.4289V38.9058H83.9204V33.7665H91.1161V29.6905H83.9204V25.5854H91.4289V21.5096H79.2903V42.9816ZM209.483 37.5697C209.307 37.9514 209.028 38.3005 208.579 38.5702C207.76 39.0549 206.682 39.0957 205.939 39.0934H204.47V33.8922H205.689C206.564 33.89 207.558 33.8998 208.354 34.2735L208.365 34.2787L208.357 34.2748C208.957 34.5484 209.284 34.9237 209.48 35.3111C209.672 35.6975 209.723 36.1017 209.723 36.3997C209.723 36.7747 209.659 37.1886 209.483 37.5697ZM204.47 25.3978H205.375C206.166 25.3978 206.891 25.5722 207.395 25.944C207.898 26.3169 208.217 26.8643 208.222 27.749C208.222 28.3701 208.078 28.8131 207.862 29.1434C207.542 29.6378 207.042 29.9017 206.542 30.0435C206.048 30.1828 205.571 30.1926 205.344 30.1926H204.47V25.3978ZM210.693 31.4109C210.969 31.2055 211.283 30.9314 211.58 30.5566C212.131 29.865 212.604 28.8454 212.603 27.4342C212.601 25.6027 211.857 23.8917 210.553 22.8851C208.763 21.4967 206.444 21.514 205.282 21.5096H199.837V42.9813H207.128C208.97 42.9826 210.962 42.6624 212.6 41.2188C214.122 39.8585 214.478 38.0443 214.478 36.775C214.477 35.6391 214.224 33.9255 212.887 32.6518C212.427 32.2148 211.737 31.7026 210.693 31.4109ZM216.99 42.9816H229.129V38.9058H221.62V33.7665H228.815V29.6905H221.62V25.5854H229.129V21.5096H216.99V42.9816ZM74.8505 21.5099H70.2191V38.9062H62.5253V21.5099H57.8947V42.9816H73.0351V47.6832H77.352V38.9058H74.8505V21.5099ZM107.333 29.5963H99.0758V21.5099H94.4452V42.9816H99.0758V33.6735H107.333V42.9816H111.964V21.5099H107.333V29.5963ZM113.769 25.5854H118.462V42.9816H123.092V25.5854H127.784V21.5096H113.77L113.769 25.5854ZM98.5409 6.45747H92.1082V0.0400391H88.315V17.1991H92.1082V9.81088H98.5409V17.1981H102.336V0.0400391H98.5409V6.45747ZM76.5173 10.5117L78.4797 5.59721L80.3998 10.5117H76.5173ZM76.9552 0.0400391L69.6878 17.1991H73.8054L75.2697 13.7164H81.5711L83.0352 17.1991H87.1224L80.0571 0.0400391H76.9552ZM112.211 7.99401L119.48 0.0400391H114.636L108.967 6.57836V0.0400391H105.174V17.1991H108.967V9.96751L109.031 9.90476L114.802 17.1994H119.812L112.211 7.99401ZM65.2556 13.1948C64.8823 13.5499 64.1934 13.8447 62.9432 13.8447L61.6875 13.8457V9.9858H62.9931C64.1776 9.98662 64.8517 10.278 65.2321 10.6453C65.6116 11.0141 65.7362 11.4914 65.738 11.9654C65.7359 12.3908 65.6289 12.8403 65.2556 13.1948ZM67.9732 8.04721C66.5995 6.83283 64.907 6.63222 63.6385 6.63222H61.6885V3.39443H68.0426V0.0405322H57.8942V17.1994H63.6625C64.3971 17.1986 65.3011 17.1432 66.1985 16.8489C67.0948 16.5567 67.9877 16.0167 68.6596 15.0635L68.6641 15.0573L68.661 15.0617C69.2637 14.1945 69.63 13.1183 69.63 11.9389C69.6318 10.2974 68.9766 8.94502 67.9732 8.04721Z" fill="#50B848"/>
</g>
<defs>
<clipPath id="clip0_70_894">
<rect width="263" height="56" fill="white"/>
</clipPath>
</defs>
</svg>
