<svg width="289" height="68" viewBox="0 0 289 68" fill="none" xmlns="http://www.w3.org/2000/svg">
<path d="M135.63 33.7C135.63 44.3 129.153 49.3 121.18 49.3H116.297V43H120.881C125.765 43 128.953 40.4 128.953 33.8C128.953 27.3 125.864 24 120.682 24C115.699 24 112.112 27.1 112.112 33.7V60.3H105.435V18.4H112.112V22H113.108C115.301 19 118.689 17.6 122.077 17.6C129.452 17.6 135.63 23 135.63 33.7ZM91.4831 31L86.9986 30.6C83.5107 30.3 81.6173 29.3 81.6173 27.3C81.6173 24.9 84.009 23.5 87.3973 23.5C90.8852 23.5 93.1773 25.2 93.3766 27.5H99.8541C99.5552 21.5 94.9711 17.8 87.4969 17.8C80.0228 17.8 74.9404 21.8 74.9404 27.6C74.9404 32.5 78.0297 35.6 85.0055 36.3L89.5897 36.7C92.38 37 94.1738 37.5 94.1738 40.2C94.1738 42.6 92.4797 44.3 87.8955 44.3C83.71 44.3 81.6173 42.4 80.9197 39.8H73.9438C74.6414 45.6 79.5245 50.2 87.8955 50.2C95.7683 50.2 100.851 46 100.851 39.9C100.851 34.3 97.2631 31.6 91.4831 31ZM161.64 39.7C160.544 42.1 158.053 44 154.465 44C149.582 44 145.895 40.8 145.895 33.9C145.895 27.3 149.283 23.6 154.565 23.6C159.249 23.6 161.939 26.4 162.139 30.7H150.08V35.6H168.716V32.4C168.716 23.5 162.836 17.7 154.465 17.7C146.692 17.7 139.218 23 139.218 33.9C139.218 44.8 146.692 50.1 154.465 50.1C161.64 50.1 166.723 45.7 168.218 39.7H161.64ZM55.8066 17.6C48.4321 17.6 42.9511 21.4 42.3531 27.3H49.5283C50.0266 25.1 52.0197 23.5 55.8066 23.5C60.6897 23.5 62.2842 26.1 62.2842 29.2V39.8C59.4938 42.9 56.3049 44.4 53.1159 44.4C49.8273 44.4 47.5352 42.8 47.5352 39.9C47.5352 37.1 49.329 35.4 52.8169 35.4H58.1983V30.5H52.6176C44.9442 30.5 40.659 34.3 40.659 40.2C40.659 45.7 44.8445 49.9 51.6211 49.9C55.408 49.9 58.7962 48.4 61.2876 46.5H62.2842V49.1H68.9611V28.7C68.9611 21 63.779 17.6 55.8066 17.6ZM10.2642 49.3H16.9411V7H10.2642V49.3ZM38.4666 18.4H30.2949L20.5286 31.3V35.3L30.5938 49.3H38.8652L27.1059 33.3L38.4666 18.4ZM281.027 18.4L275.546 30.6C274.251 33.6 272.955 36.4 272.557 38.4H271.56C271.161 36.5 269.866 33.7 268.471 30.7L263.089 18.4H255.715L268.67 46.2L262.292 60.2H269.467L288.601 18.4H281.027ZM254.12 18.4H245.949L236.182 31.3V35.3L246.248 49.3H254.519L242.76 33.3L254.12 18.4ZM212.166 31L207.681 30.6C204.193 30.3 202.3 29.3 202.3 27.3C202.3 24.9 204.691 23.5 208.08 23.5C211.568 23.5 213.86 25.2 214.059 27.5H220.537C220.238 21.5 215.653 17.8 208.179 17.8C200.705 17.8 195.623 21.8 195.623 27.6C195.623 32.5 198.712 35.6 205.688 36.3L210.272 36.7C213.062 37 214.856 37.5 214.856 40.2C214.856 42.6 213.162 44.3 208.578 44.3C204.392 44.3 202.3 42.4 201.602 39.8H194.626C195.324 45.6 200.207 50.2 208.578 50.2C216.451 50.2 221.533 46 221.533 39.9C221.433 34.3 217.846 31.6 212.166 31ZM225.918 49.3H232.595V7H225.918V49.3ZM181.671 22H180.674V18.4H173.998V49.3H180.674V33.2C180.674 27.7 183.166 24.5 188.248 24.5H192.533V17.7H190.042C185.458 17.6 183.465 19.4 181.671 22Z" fill="#00A88E"/>
</svg>
