<svg width="402" height="70" viewBox="0 0 402 70" fill="none" xmlns="http://www.w3.org/2000/svg">
<rect x="1.50755" y="1.49998" width="397.908" height="66.1197" rx="28.5" transform="matrix(1 0 0.00503392 0.999987 -0.00755069 1.90434e-05)" fill="#241433" stroke="#AB00EA" stroke-width="3"/>
<path d="M61.4014 47.2203L61.2873 24.5766H48.3993L48.2174 31.3445C48.1554 33.3365 48.045 35.2445 47.8862 37.0685C47.7274 38.8924 47.4837 40.5364 47.1551 42.0004C46.8263 43.4404 46.3642 44.6044 45.7687 45.4923C45.1971 46.3803 44.4675 46.8603 43.5799 46.9323L41.4536 46.4643C42.4619 46.5363 43.2762 46.1883 43.8963 45.4203C44.5404 44.6524 45.0389 43.5604 45.3918 42.1444C45.7687 40.7284 46.0364 39.0844 46.1949 37.2125C46.3535 35.3405 46.4634 33.3365 46.5247 31.2005L46.7349 22.9206H63.1149L63.2374 47.2203H61.4014ZM40.5549 53.8802L40.5536 46.4643H67.1216L67.1589 53.8802H65.3949L65.3659 48.1203H42.3259L42.3189 53.8802H40.5549ZM70.5916 48.3003C70.3036 48.3003 70.0155 48.2763 69.7272 48.2283C69.4631 48.2043 69.1509 48.1563 68.7905 48.0843L68.998 46.3923C69.4065 46.4883 69.8027 46.5363 70.1867 46.5363C71.2907 46.5363 72.1765 46.1043 72.8442 45.2404C73.5358 44.3764 74.057 43.0204 74.4077 41.1724C74.7582 39.3004 74.986 36.8645 75.0909 33.8645L75.3957 22.9206H91.9197L92.0467 48.1203H90.2107L90.0892 24.0006L90.6321 24.5766H76.5561L77.0932 24.0006L76.7827 33.8285C76.6995 36.3725 76.5305 38.5564 76.2757 40.3804C76.0208 42.1804 75.6442 43.6684 75.1462 44.8444C74.6721 46.0203 74.0525 46.8963 73.2874 47.4723C72.5462 48.0243 71.6476 48.3003 70.5916 48.3003ZM116.572 48.1203L116.529 39.6604L117.108 40.2004H108.504C106.56 40.2004 104.878 39.8644 103.459 39.1924C102.063 38.5204 100.99 37.5484 100.24 36.2765C99.5136 35.0045 99.1459 33.4805 99.137 31.7045C99.1274 29.8085 99.5154 28.2126 100.301 26.9166C101.11 25.5966 102.233 24.6006 103.67 23.9286C105.13 23.2566 106.833 22.9206 108.777 22.9206H118.281L118.408 48.1203H116.572ZM99.2197 48.1203L105.331 39.3004H107.275L101.2 48.1203H99.2197ZM116.527 39.1924L116.45 24.0006L117.029 24.5766H108.929C106.409 24.5766 104.456 25.1766 103.07 26.3766C101.684 27.5766 100.997 29.3406 101.009 31.6685C101.02 33.8765 101.665 35.5925 102.943 36.8165C104.245 38.0164 106.156 38.6164 108.676 38.6164H117.1L116.527 39.1924ZM147.542 48.3003C145.67 48.3003 143.928 47.9883 142.317 47.3643C140.73 46.7163 139.345 45.8163 138.164 44.6644C136.982 43.5124 136.063 42.1684 135.407 40.6324C134.751 39.0724 134.419 37.3684 134.409 35.5205C134.4 33.6725 134.716 31.9805 135.356 30.4445C135.996 28.8846 136.901 27.5286 138.071 26.3766C139.266 25.2246 140.653 24.3366 142.234 23.7126C143.815 23.0646 145.541 22.7406 147.413 22.7406C149.189 22.7406 150.847 23.0286 152.385 23.6046C153.948 24.1806 155.285 25.0566 156.395 26.2326L155.249 27.4206C154.163 26.3646 152.96 25.6086 151.637 25.1526C150.339 24.6726 148.958 24.4326 147.494 24.4326C145.886 24.4326 144.387 24.7086 142.998 25.2606C141.633 25.8126 140.436 26.5926 139.41 27.6006C138.407 28.6086 137.621 29.7845 137.051 31.1285C136.506 32.4725 136.237 33.9365 136.245 35.5205C136.253 37.1045 136.537 38.5684 137.096 39.9124C137.678 41.2564 138.476 42.4324 139.489 43.4404C140.526 44.4484 141.73 45.2284 143.101 45.7803C144.496 46.3323 145.997 46.6083 147.605 46.6083C149.069 46.6083 150.448 46.3803 151.742 45.9243C153.059 45.4443 154.256 44.6644 155.33 43.5844L156.488 44.7724C155.39 45.9483 154.062 46.8363 152.506 47.4363C150.972 48.0123 149.318 48.3003 147.542 48.3003ZM167.02 48.1203L166.898 24.0006L167.441 24.5766H157.829L157.821 22.9206H177.801L177.809 24.5766H168.197L168.734 24.0006L168.856 48.1203H167.02ZM180.976 46.2483C182.154 46.7043 183.294 46.8123 184.397 46.5723C185.5 46.3083 186.539 45.4083 187.516 43.8724L188.73 41.9644L188.944 41.6764L198.786 22.9206H200.694L189.174 44.3044C188.461 45.6723 187.614 46.6803 186.633 47.3283C185.676 47.9763 184.658 48.3123 183.578 48.3363C182.522 48.3843 181.465 48.1923 180.407 47.7603L180.976 46.2483ZM188.845 43.4404L177.942 22.9206H179.958L189.881 41.8204L188.845 43.4404ZM221.819 47.2203L221.705 24.5766H208.817L208.635 31.3445C208.573 33.3365 208.463 35.2445 208.304 37.0685C208.145 38.8924 207.902 40.5364 207.573 42.0004C207.244 43.4404 206.782 44.6044 206.187 45.4923C205.615 46.3803 204.886 46.8603 203.998 46.9323L201.872 46.4643C202.88 46.5363 203.694 46.1883 204.314 45.4203C204.958 44.6524 205.457 43.5604 205.81 42.1444C206.187 40.7284 206.454 39.0844 206.613 37.2125C206.771 35.3405 206.881 33.3365 206.943 31.2005L207.153 22.9206H223.533L223.655 47.2203H221.819ZM200.973 53.8802L200.972 46.4643H227.54L227.577 53.8802H225.813L225.784 48.1203H202.744L202.737 53.8802H200.973ZM234.972 34.5125H248.616L248.624 36.1325H234.98L234.972 34.5125ZM235.248 46.4643H250.8L250.809 48.1203H233.421L233.294 22.9206H250.142L250.15 24.5766H235.138L235.248 46.4643ZM275.497 22.9206H277.333L277.46 48.1203H275.624L275.497 22.9206ZM258.776 48.1203H256.94L256.813 22.9206H258.649L258.776 48.1203ZM275.78 36.1325H258.5L258.492 34.5125H275.772L275.78 36.1325ZM291.438 48.1203L291.316 24.0006L291.859 24.5766H282.247L282.239 22.9206H302.219L302.227 24.5766H292.615L293.152 24.0006L293.274 48.1203H291.438ZM317.698 48.3003C315.826 48.3003 314.085 47.9883 312.473 47.3643C310.886 46.7163 309.49 45.8163 308.284 44.6644C307.102 43.4884 306.183 42.1324 305.527 40.5964C304.871 39.0364 304.539 37.3444 304.53 35.5205C304.521 33.6965 304.836 32.0165 305.476 30.4805C306.116 28.9206 307.022 27.5646 308.192 26.4126C309.386 25.2366 310.773 24.3366 312.354 23.7126C313.959 23.0646 315.697 22.7406 317.569 22.7406C319.441 22.7406 321.171 23.0646 322.758 23.7126C324.369 24.3366 325.766 25.2246 326.948 26.3766C328.129 27.5286 329.048 28.8846 329.704 30.4445C330.384 31.9805 330.728 33.6725 330.738 35.5205C330.747 37.3684 330.42 39.0724 329.755 40.6324C329.115 42.1684 328.21 43.5124 327.04 44.6644C325.87 45.8163 324.482 46.7163 322.877 47.3643C321.297 47.9883 319.57 48.3003 317.698 48.3003ZM317.69 46.6083C319.298 46.6083 320.784 46.3323 322.149 45.7803C323.515 45.2284 324.699 44.4484 325.702 43.4404C326.705 42.4324 327.479 41.2564 328.024 39.9124C328.593 38.5684 328.874 37.1045 328.866 35.5205C328.858 33.9125 328.562 32.4485 327.98 31.1285C327.421 29.7845 326.635 28.6086 325.622 27.6006C324.609 26.5926 323.417 25.8126 322.046 25.2606C320.675 24.7086 319.186 24.4326 317.578 24.4326C315.97 24.4326 314.483 24.7086 313.118 25.2606C311.753 25.8126 310.557 26.5926 309.53 27.6006C308.527 28.6086 307.741 29.7845 307.172 31.1285C306.626 32.4485 306.358 33.9125 306.366 35.5205C306.374 37.1045 306.657 38.5684 307.216 39.9124C307.799 41.2564 308.597 42.4324 309.61 43.4404C310.647 44.4484 311.851 45.2284 313.221 45.7803C314.592 46.3323 316.082 46.6083 317.69 46.6083ZM337.589 48.1203L337.462 22.9206H347.614C350.206 22.9206 352.248 23.4606 353.742 24.5406C355.259 25.6206 356.023 27.2166 356.034 29.3286C356.044 31.4165 355.32 32.9885 353.862 34.0445C352.427 35.1005 350.546 35.6285 348.218 35.6285L348.826 34.9085C351.634 34.9085 353.761 35.4605 355.206 36.5645C356.652 37.6684 357.38 39.2884 357.391 41.4244C357.402 43.5604 356.666 45.2164 355.184 46.3923C353.702 47.5443 351.449 48.1203 348.425 48.1203H337.589ZM339.417 46.5723H348.453C350.781 46.5723 352.543 46.1523 353.738 45.3123C354.958 44.4484 355.563 43.1164 355.554 41.3164C355.545 39.4924 354.926 38.1724 353.698 37.3564C352.494 36.5165 350.728 36.0965 348.4 36.0965H339.364L339.417 46.5723ZM339.356 34.5845H347.636C349.724 34.5845 351.33 34.1645 352.454 33.3245C353.602 32.4605 354.171 31.2005 354.163 29.5445C354.155 27.8646 353.572 26.6046 352.416 25.7646C351.284 24.9006 349.673 24.4686 347.585 24.4686H339.305L339.356 34.5845Z" fill="white"/>
</svg>
