<svg width="426" height="1500" viewBox="0 0 426 1500" fill="none" xmlns="http://www.w3.org/2000/svg">
<path d="M538.084 1488.35C317.023 1347.25 235.086 1030.14 135.443 805.459C113.261 755.44 79.4952 699.256 76.8417 643.534C73.1042 565.046 152.94 510.98 207.504 468.009C297.314 397.28 414.442 315.217 482.567 221.546" stroke="#0057FF" stroke-width="3" stroke-linecap="round"/>
<path d="M437.144 1498.44C429.194 1466.65 397.02 1431.83 380.224 1404.51C348.73 1353.29 327.254 1293.71 285.172 1249.74C242.698 1205.36 187.295 1171.33 141.892 1129.45C78.8174 1071.27 50.0252 987.433 22.446 908.082C-41.0916 725.272 52.2999 604.882 180.867 477.963C267.517 392.424 370.345 304.337 477.8 245.379C508.156 228.723 548.107 227.481 575.937 208.928" stroke="#0057FF" stroke-width="3" stroke-linecap="round"/>
<path d="M447.238 1167.86C352.11 1152.01 267.473 952.893 233.3 881.866C183.817 779.019 142.76 656.329 120.583 544.556C95.6236 418.762 57.9144 322.154 177.642 241.454C284.261 169.589 403.688 135.608 522.943 91.725C569.041 74.7624 662.163 51.6174 686.972 2" stroke="#0057FF" stroke-width="3" stroke-linecap="round"/>
</svg>
