<svg width="296" height="1502" viewBox="0 0 296 1502" fill="none" xmlns="http://www.w3.org/2000/svg">
<path d="M-247.067 12.5692C-25.3573 152.65 58.043 469.373 158.722 693.594C181.135 743.511 215.16 799.538 218.07 855.248C222.17 933.718 142.585 988.151 88.22 1031.37C-1.26327 1102.52 -118.011 1185.12 -185.702 1279.1" stroke="#0057FF" stroke-width="3" stroke-linecap="round"/>
<path d="M-146.175 2.0092C-138.079 33.769 -105.744 68.4351 -88.8224 95.6763C-57.0917 146.759 -35.3409 206.236 6.94354 250.012C49.6221 294.195 105.181 327.964 150.777 369.636C214.12 427.528 243.299 511.228 271.244 590.451C335.625 772.966 242.79 893.786 114.811 1021.3C28.5566 1107.23 -73.8637 1195.8 -181.046 1255.25C-211.325 1272.04 -251.27 1273.47 -279.013 1292.15" stroke="#0057FF" stroke-width="3" stroke-linecap="round"/>
<path d="M-154.742 332.633C-59.543 348.048 26.0125 546.772 60.5136 617.64C110.471 720.258 152.094 842.756 174.787 954.426C200.326 1080.1 238.481 1176.54 119.127 1257.79C12.8413 1330.14 -106.428 1364.68 -225.479 1409.11C-271.498 1426.29 -364.512 1449.86 -389.092 1499.59" stroke="#0057FF" stroke-width="3" stroke-linecap="round"/>
</svg>
